<mxfile host="app.diagrams.net" agent="Mozilla/5.0 (Macintosh; Intel Mac OS X 10_15_7) AppleWebKit/605.1.15 (KHTML, like Gecko) Version/18.5 Safari/605.1.15" version="27.0.9">
  <diagram name="Page-1" id="DQU-6TTzWp3uHl4yWCbL">
    <mxGraphModel dx="1018" dy="697" grid="1" gridSize="10" guides="1" tooltips="1" connect="1" arrows="1" fold="1" page="1" pageScale="1" pageWidth="827" pageHeight="1169" math="0" shadow="0">
      <root>
        <mxCell id="0" />
        <mxCell id="1" parent="0" />
        <mxCell id="kt5JHNKNtY_vNhsqWSHy-1" value="Student" style="swimlane;fontStyle=1;align=center;verticalAlign=top;childLayout=stackLayout;horizontal=1;startSize=26;horizontalStack=0;resizeParent=1;resizeParentMax=0;resizeLast=0;collapsible=1;marginBottom=0;whiteSpace=wrap;html=1;" parent="1" vertex="1">
          <mxGeometry x="134" y="130" width="160" height="104" as="geometry">
            <mxRectangle x="80" y="80" width="80" height="30" as="alternateBounds" />
          </mxGeometry>
        </mxCell>
        <mxCell id="kt5JHNKNtY_vNhsqWSHy-2" value="+String am&lt;div&gt;+String fullname&lt;/div&gt;" style="text;strokeColor=none;fillColor=none;align=left;verticalAlign=top;spacingLeft=4;spacingRight=4;overflow=hidden;rotatable=0;points=[[0,0.5],[1,0.5]];portConstraint=eastwest;whiteSpace=wrap;html=1;" parent="kt5JHNKNtY_vNhsqWSHy-1" vertex="1">
          <mxGeometry y="26" width="160" height="44" as="geometry" />
        </mxCell>
        <mxCell id="kt5JHNKNtY_vNhsqWSHy-3" value="" style="line;strokeWidth=1;fillColor=none;align=left;verticalAlign=middle;spacingTop=-1;spacingLeft=3;spacingRight=3;rotatable=0;labelPosition=right;points=[];portConstraint=eastwest;strokeColor=inherit;" parent="kt5JHNKNtY_vNhsqWSHy-1" vertex="1">
          <mxGeometry y="70" width="160" height="8" as="geometry" />
        </mxCell>
        <mxCell id="kt5JHNKNtY_vNhsqWSHy-4" value="+ calculateGpo(): float" style="text;strokeColor=none;fillColor=none;align=left;verticalAlign=top;spacingLeft=4;spacingRight=4;overflow=hidden;rotatable=0;points=[[0,0.5],[1,0.5]];portConstraint=eastwest;whiteSpace=wrap;html=1;" parent="kt5JHNKNtY_vNhsqWSHy-1" vertex="1">
          <mxGeometry y="78" width="160" height="26" as="geometry" />
        </mxCell>
        <mxCell id="kt5JHNKNtY_vNhsqWSHy-6" value="Course" style="swimlane;fontStyle=1;align=center;verticalAlign=top;childLayout=stackLayout;horizontal=1;startSize=26;horizontalStack=0;resizeParent=1;resizeParentMax=0;resizeLast=0;collapsible=1;marginBottom=0;whiteSpace=wrap;html=1;" parent="1" vertex="1">
          <mxGeometry x="534" y="130" width="160" height="70" as="geometry">
            <mxRectangle x="80" y="80" width="80" height="30" as="alternateBounds" />
          </mxGeometry>
        </mxCell>
        <mxCell id="kt5JHNKNtY_vNhsqWSHy-7" value="+Integer id&lt;div&gt;+String title&lt;/div&gt;" style="text;strokeColor=none;fillColor=none;align=left;verticalAlign=top;spacingLeft=4;spacingRight=4;overflow=hidden;rotatable=0;points=[[0,0.5],[1,0.5]];portConstraint=eastwest;whiteSpace=wrap;html=1;" parent="kt5JHNKNtY_vNhsqWSHy-6" vertex="1">
          <mxGeometry y="26" width="160" height="44" as="geometry" />
        </mxCell>
        <mxCell id="kt5JHNKNtY_vNhsqWSHy-11" value="Grades" style="swimlane;fontStyle=1;align=center;verticalAlign=top;childLayout=stackLayout;horizontal=1;startSize=26;horizontalStack=0;resizeParent=1;resizeParentMax=0;resizeLast=0;collapsible=1;marginBottom=0;whiteSpace=wrap;html=1;" parent="1" vertex="1">
          <mxGeometry x="324" y="290" width="160" height="80" as="geometry">
            <mxRectangle x="80" y="80" width="80" height="30" as="alternateBounds" />
          </mxGeometry>
        </mxCell>
        <mxCell id="kt5JHNKNtY_vNhsqWSHy-12" value="+Student student&lt;div&gt;+Course course&lt;/div&gt;&lt;div&gt;+Float grade&lt;/div&gt;" style="text;strokeColor=none;fillColor=none;align=left;verticalAlign=top;spacingLeft=4;spacingRight=4;overflow=hidden;rotatable=0;points=[[0,0.5],[1,0.5]];portConstraint=eastwest;whiteSpace=wrap;html=1;" parent="kt5JHNKNtY_vNhsqWSHy-11" vertex="1">
          <mxGeometry y="26" width="160" height="54" as="geometry" />
        </mxCell>
        <mxCell id="6MRWPZIBDB7SPPUt-pnK-1" value="0..n" style="endArrow=open;html=1;endSize=12;startArrow=diamondThin;startSize=14;startFill=1;edgeStyle=orthogonalEdgeStyle;align=left;verticalAlign=bottom;rounded=0;entryX=0.02;entryY=0.259;entryDx=0;entryDy=0;entryPerimeter=0;exitX=0.494;exitY=0.942;exitDx=0;exitDy=0;exitPerimeter=0;" parent="1" source="kt5JHNKNtY_vNhsqWSHy-4" target="kt5JHNKNtY_vNhsqWSHy-12" edge="1">
          <mxGeometry x="0.6863" y="10" relative="1" as="geometry">
            <mxPoint x="214" y="250" as="sourcePoint" />
            <mxPoint x="314" y="351.66599999999994" as="targetPoint" />
            <Array as="points">
              <mxPoint x="214" y="233" />
              <mxPoint x="214" y="330" />
            </Array>
            <mxPoint as="offset" />
          </mxGeometry>
        </mxCell>
        <mxCell id="6MRWPZIBDB7SPPUt-pnK-5" value="0..n" style="endArrow=open;html=1;endSize=12;startArrow=diamondThin;startSize=14;startFill=1;edgeStyle=orthogonalEdgeStyle;align=left;verticalAlign=bottom;rounded=0;entryX=1;entryY=0.5;entryDx=0;entryDy=0;" parent="1" target="kt5JHNKNtY_vNhsqWSHy-12" edge="1">
          <mxGeometry x="0.8535" y="-13" relative="1" as="geometry">
            <mxPoint x="614" y="200" as="sourcePoint" />
            <mxPoint x="614" y="340" as="targetPoint" />
            <Array as="points">
              <mxPoint x="614" y="343" />
            </Array>
            <mxPoint as="offset" />
          </mxGeometry>
        </mxCell>
      </root>
    </mxGraphModel>
  </diagram>
</mxfile>
